<?xml version="1.0" encoding="utf-8" standalone="no"?>
<!DOCTYPE svg PUBLIC "-//W3C//DTD SVG 1.1//EN"
  "http://www.w3.org/Graphics/SVG/1.1/DTD/svg11.dtd">
<svg xmlns:xlink="http://www.w3.org/1999/xlink" width="907.2pt" height="864pt" viewBox="0 0 907.2 864" xmlns="http://www.w3.org/2000/svg" version="1.1">
 <metadata>
  <rdf:RDF xmlns:dc="http://purl.org/dc/elements/1.1/" xmlns:cc="http://creativecommons.org/ns#" xmlns:rdf="http://www.w3.org/1999/02/22-rdf-syntax-ns#">
   <cc:Work>
    <dc:type rdf:resource="http://purl.org/dc/dcmitype/StillImage"/>
    <dc:date>2023-01-31T12:30:24.426534</dc:date>
    <dc:format>image/svg+xml</dc:format>
    <dc:creator>
     <cc:Agent>
      <dc:title>Matplotlib v3.5.1, https://matplotlib.org/</dc:title>
     </cc:Agent>
    </dc:creator>
   </cc:Work>
  </rdf:RDF>
 </metadata>
 <defs>
  <style type="text/css">*{stroke-linejoin: round; stroke-linecap: butt}</style>
 </defs>
 <g id="figure_1">
  <g id="patch_1">
   <path d="M 0 864 
L 907.2 864 
L 907.2 0 
L 0 0 
z
" style="fill: #ffffff"/>
  </g>
  <g id="axes_1">
   <g id="patch_2">
    <path d="M 136.08 777.6 
L 861.84 777.6 
L 861.84 25.92 
L 136.08 25.92 
z
" style="fill: #ffffff"/>
   </g>
   <g id="matplotlib.axis_1">
    <g id="xtick_1">
     <g id="line2d_1">
      <defs>
       <path id="m8a8a555ef4" d="M 0 0 
L 0 3.5 
" style="stroke: #000000; stroke-width: 0.8"/>
      </defs>
      <g>
       <use xlink:href="#m8a8a555ef4" x="136.08" y="777.6" style="stroke: #000000; stroke-width: 0.8"/>
      </g>
     </g>
    </g>
    <g id="xtick_2">
     <g id="line2d_2">
      <g>
       <use xlink:href="#m8a8a555ef4" x="384.136657" y="777.6" style="stroke: #000000; stroke-width: 0.8"/>
      </g>
     </g>
    </g>
    <g id="xtick_3">
     <g id="line2d_3">
      <g>
       <use xlink:href="#m8a8a555ef4" x="408.455879" y="777.6" style="stroke: #000000; stroke-width: 0.8"/>
      </g>
     </g>
    </g>
    <g id="xtick_4">
     <g id="line2d_4">
      <g>
       <use xlink:href="#m8a8a555ef4" x="560.493195" y="777.6" style="stroke: #000000; stroke-width: 0.8"/>
      </g>
     </g>
    </g>
    <g id="xtick_5">
     <g id="line2d_5">
      <g>
       <use xlink:href="#m8a8a555ef4" x="748.180101" y="777.6" style="stroke: #000000; stroke-width: 0.8"/>
      </g>
     </g>
    </g>
    <g id="xtick_6">
     <g id="line2d_6">
      <g>
       <use xlink:href="#m8a8a555ef4" x="861.84" y="777.6" style="stroke: #000000; stroke-width: 0.8"/>
      </g>
     </g>
    </g>
   </g>
   <g id="matplotlib.axis_2">
    <g id="ytick_1">
     <g id="line2d_7">
      <defs>
       <path id="m5282e4a29b" d="M 0 0 
L -3.5 0 
" style="stroke: #000000; stroke-width: 0.8"/>
      </defs>
      <g>
       <use xlink:href="#m5282e4a29b" x="136.08" y="768.216774" style="stroke: #000000; stroke-width: 0.8"/>
      </g>
     </g>
     <g id="text_1">
      <!-- −2 -->
      <g transform="translate(102.837812 772.015992)scale(0.1 -0.1)">
       <defs>
        <path id="DejaVuSans-2212" d="M 678 2272 
L 4684 2272 
L 4684 1741 
L 678 1741 
L 678 2272 
z
" transform="scale(0.015625)"/>
        <path id="DejaVuSans-32" d="M 1228 531 
L 3431 531 
L 3431 0 
L 469 0 
L 469 531 
Q 828 903 1448 1529 
Q 2069 2156 2228 2338 
Q 2531 2678 2651 2914 
Q 2772 3150 2772 3378 
Q 2772 3750 2511 3984 
Q 2250 4219 1831 4219 
Q 1534 4219 1204 4116 
Q 875 4013 500 3803 
L 500 4441 
Q 881 4594 1212 4672 
Q 1544 4750 1819 4750 
Q 2544 4750 2975 4387 
Q 3406 4025 3406 3419 
Q 3406 3131 3298 2873 
Q 3191 2616 2906 2266 
Q 2828 2175 2409 1742 
Q 1991 1309 1228 531 
z
" transform="scale(0.015625)"/>
       </defs>
       <use xlink:href="#DejaVuSans-2212"/>
       <use xlink:href="#DejaVuSans-32" x="83.789062"/>
      </g>
     </g>
    </g>
    <g id="ytick_2">
     <g id="line2d_8">
      <g>
       <use xlink:href="#m5282e4a29b" x="136.08" y="679.196441" style="stroke: #000000; stroke-width: 0.8"/>
      </g>
     </g>
     <g id="text_2">
      <!-- 0 -->
      <g transform="translate(111.2175 682.995659)scale(0.1 -0.1)">
       <defs>
        <path id="DejaVuSans-30" d="M 2034 4250 
Q 1547 4250 1301 3770 
Q 1056 3291 1056 2328 
Q 1056 1369 1301 889 
Q 1547 409 2034 409 
Q 2525 409 2770 889 
Q 3016 1369 3016 2328 
Q 3016 3291 2770 3770 
Q 2525 4250 2034 4250 
z
M 2034 4750 
Q 2819 4750 3233 4129 
Q 3647 3509 3647 2328 
Q 3647 1150 3233 529 
Q 2819 -91 2034 -91 
Q 1250 -91 836 529 
Q 422 1150 422 2328 
Q 422 3509 836 4129 
Q 1250 4750 2034 4750 
z
" transform="scale(0.015625)"/>
       </defs>
       <use xlink:href="#DejaVuSans-30"/>
      </g>
     </g>
    </g>
    <g id="ytick_3">
     <g id="line2d_9">
      <g>
       <use xlink:href="#m5282e4a29b" x="136.08" y="590.176108" style="stroke: #000000; stroke-width: 0.8"/>
      </g>
     </g>
     <g id="text_3">
      <!-- 2 -->
      <g transform="translate(111.2175 593.975327)scale(0.1 -0.1)">
       <use xlink:href="#DejaVuSans-32"/>
      </g>
     </g>
    </g>
    <g id="ytick_4">
     <g id="line2d_10">
      <g>
       <use xlink:href="#m5282e4a29b" x="136.08" y="501.155775" style="stroke: #000000; stroke-width: 0.8"/>
      </g>
     </g>
     <g id="text_4">
      <!-- 4 -->
      <g transform="translate(111.2175 504.954994)scale(0.1 -0.1)">
       <defs>
        <path id="DejaVuSans-34" d="M 2419 4116 
L 825 1625 
L 2419 1625 
L 2419 4116 
z
M 2253 4666 
L 3047 4666 
L 3047 1625 
L 3713 1625 
L 3713 1100 
L 3047 1100 
L 3047 0 
L 2419 0 
L 2419 1100 
L 313 1100 
L 313 1709 
L 2253 4666 
z
" transform="scale(0.015625)"/>
       </defs>
       <use xlink:href="#DejaVuSans-34"/>
      </g>
     </g>
    </g>
    <g id="ytick_5">
     <g id="line2d_11">
      <g>
       <use xlink:href="#m5282e4a29b" x="136.08" y="412.135442" style="stroke: #000000; stroke-width: 0.8"/>
      </g>
     </g>
     <g id="text_5">
      <!-- 6 -->
      <g transform="translate(111.2175 415.934661)scale(0.1 -0.1)">
       <defs>
        <path id="DejaVuSans-36" d="M 2113 2584 
Q 1688 2584 1439 2293 
Q 1191 2003 1191 1497 
Q 1191 994 1439 701 
Q 1688 409 2113 409 
Q 2538 409 2786 701 
Q 3034 994 3034 1497 
Q 3034 2003 2786 2293 
Q 2538 2584 2113 2584 
z
M 3366 4563 
L 3366 3988 
Q 3128 4100 2886 4159 
Q 2644 4219 2406 4219 
Q 1781 4219 1451 3797 
Q 1122 3375 1075 2522 
Q 1259 2794 1537 2939 
Q 1816 3084 2150 3084 
Q 2853 3084 3261 2657 
Q 3669 2231 3669 1497 
Q 3669 778 3244 343 
Q 2819 -91 2113 -91 
Q 1303 -91 875 529 
Q 447 1150 447 2328 
Q 447 3434 972 4092 
Q 1497 4750 2381 4750 
Q 2619 4750 2861 4703 
Q 3103 4656 3366 4563 
z
" transform="scale(0.015625)"/>
       </defs>
       <use xlink:href="#DejaVuSans-36"/>
      </g>
     </g>
    </g>
    <g id="ytick_6">
     <g id="line2d_12">
      <g>
       <use xlink:href="#m5282e4a29b" x="136.08" y="323.115109" style="stroke: #000000; stroke-width: 0.8"/>
      </g>
     </g>
     <g id="text_6">
      <!-- 8 -->
      <g transform="translate(111.2175 326.914328)scale(0.1 -0.1)">
       <defs>
        <path id="DejaVuSans-38" d="M 2034 2216 
Q 1584 2216 1326 1975 
Q 1069 1734 1069 1313 
Q 1069 891 1326 650 
Q 1584 409 2034 409 
Q 2484 409 2743 651 
Q 3003 894 3003 1313 
Q 3003 1734 2745 1975 
Q 2488 2216 2034 2216 
z
M 1403 2484 
Q 997 2584 770 2862 
Q 544 3141 544 3541 
Q 544 4100 942 4425 
Q 1341 4750 2034 4750 
Q 2731 4750 3128 4425 
Q 3525 4100 3525 3541 
Q 3525 3141 3298 2862 
Q 3072 2584 2669 2484 
Q 3125 2378 3379 2068 
Q 3634 1759 3634 1313 
Q 3634 634 3220 271 
Q 2806 -91 2034 -91 
Q 1263 -91 848 271 
Q 434 634 434 1313 
Q 434 1759 690 2068 
Q 947 2378 1403 2484 
z
M 1172 3481 
Q 1172 3119 1398 2916 
Q 1625 2713 2034 2713 
Q 2441 2713 2670 2916 
Q 2900 3119 2900 3481 
Q 2900 3844 2670 4047 
Q 2441 4250 2034 4250 
Q 1625 4250 1398 4047 
Q 1172 3844 1172 3481 
z
" transform="scale(0.015625)"/>
       </defs>
       <use xlink:href="#DejaVuSans-38"/>
      </g>
     </g>
    </g>
    <g id="ytick_7">
     <g id="line2d_13">
      <g>
       <use xlink:href="#m5282e4a29b" x="136.08" y="234.094776" style="stroke: #000000; stroke-width: 0.8"/>
      </g>
     </g>
     <g id="text_7">
      <!-- 10 -->
      <g transform="translate(104.855 237.893995)scale(0.1 -0.1)">
       <defs>
        <path id="DejaVuSans-31" d="M 794 531 
L 1825 531 
L 1825 4091 
L 703 3866 
L 703 4441 
L 1819 4666 
L 2450 4666 
L 2450 531 
L 3481 531 
L 3481 0 
L 794 0 
L 794 531 
z
" transform="scale(0.015625)"/>
       </defs>
       <use xlink:href="#DejaVuSans-31"/>
       <use xlink:href="#DejaVuSans-30" x="63.623047"/>
      </g>
     </g>
    </g>
    <g id="ytick_8">
     <g id="line2d_14">
      <g>
       <use xlink:href="#m5282e4a29b" x="136.08" y="145.074443" style="stroke: #000000; stroke-width: 0.8"/>
      </g>
     </g>
     <g id="text_8">
      <!-- 12 -->
      <g transform="translate(104.855 148.873662)scale(0.1 -0.1)">
       <use xlink:href="#DejaVuSans-31"/>
       <use xlink:href="#DejaVuSans-32" x="63.623047"/>
      </g>
     </g>
    </g>
    <g id="ytick_9">
     <g id="line2d_15">
      <g>
       <use xlink:href="#m5282e4a29b" x="136.08" y="56.054111" style="stroke: #000000; stroke-width: 0.8"/>
      </g>
     </g>
     <g id="text_9">
      <!-- 14 -->
      <g transform="translate(104.855 59.853329)scale(0.1 -0.1)">
       <use xlink:href="#DejaVuSans-31"/>
       <use xlink:href="#DejaVuSans-34" x="63.623047"/>
      </g>
     </g>
    </g>
    <g id="text_10">
     <!-- Frequency (THz) -->
     <g transform="translate(88.439375 605.552969)rotate(-90)scale(0.5 -0.5)">
      <defs>
       <path id="DejaVuSans-46" d="M 628 4666 
L 3309 4666 
L 3309 4134 
L 1259 4134 
L 1259 2759 
L 3109 2759 
L 3109 2228 
L 1259 2228 
L 1259 0 
L 628 0 
L 628 4666 
z
" transform="scale(0.015625)"/>
       <path id="DejaVuSans-72" d="M 2631 2963 
Q 2534 3019 2420 3045 
Q 2306 3072 2169 3072 
Q 1681 3072 1420 2755 
Q 1159 2438 1159 1844 
L 1159 0 
L 581 0 
L 581 3500 
L 1159 3500 
L 1159 2956 
Q 1341 3275 1631 3429 
Q 1922 3584 2338 3584 
Q 2397 3584 2469 3576 
Q 2541 3569 2628 3553 
L 2631 2963 
z
" transform="scale(0.015625)"/>
       <path id="DejaVuSans-65" d="M 3597 1894 
L 3597 1613 
L 953 1613 
Q 991 1019 1311 708 
Q 1631 397 2203 397 
Q 2534 397 2845 478 
Q 3156 559 3463 722 
L 3463 178 
Q 3153 47 2828 -22 
Q 2503 -91 2169 -91 
Q 1331 -91 842 396 
Q 353 884 353 1716 
Q 353 2575 817 3079 
Q 1281 3584 2069 3584 
Q 2775 3584 3186 3129 
Q 3597 2675 3597 1894 
z
M 3022 2063 
Q 3016 2534 2758 2815 
Q 2500 3097 2075 3097 
Q 1594 3097 1305 2825 
Q 1016 2553 972 2059 
L 3022 2063 
z
" transform="scale(0.015625)"/>
       <path id="DejaVuSans-71" d="M 947 1747 
Q 947 1113 1208 752 
Q 1469 391 1925 391 
Q 2381 391 2643 752 
Q 2906 1113 2906 1747 
Q 2906 2381 2643 2742 
Q 2381 3103 1925 3103 
Q 1469 3103 1208 2742 
Q 947 2381 947 1747 
z
M 2906 525 
Q 2725 213 2448 61 
Q 2172 -91 1784 -91 
Q 1150 -91 751 415 
Q 353 922 353 1747 
Q 353 2572 751 3078 
Q 1150 3584 1784 3584 
Q 2172 3584 2448 3432 
Q 2725 3281 2906 2969 
L 2906 3500 
L 3481 3500 
L 3481 -1331 
L 2906 -1331 
L 2906 525 
z
" transform="scale(0.015625)"/>
       <path id="DejaVuSans-75" d="M 544 1381 
L 544 3500 
L 1119 3500 
L 1119 1403 
Q 1119 906 1312 657 
Q 1506 409 1894 409 
Q 2359 409 2629 706 
Q 2900 1003 2900 1516 
L 2900 3500 
L 3475 3500 
L 3475 0 
L 2900 0 
L 2900 538 
Q 2691 219 2414 64 
Q 2138 -91 1772 -91 
Q 1169 -91 856 284 
Q 544 659 544 1381 
z
M 1991 3584 
L 1991 3584 
z
" transform="scale(0.015625)"/>
       <path id="DejaVuSans-6e" d="M 3513 2113 
L 3513 0 
L 2938 0 
L 2938 2094 
Q 2938 2591 2744 2837 
Q 2550 3084 2163 3084 
Q 1697 3084 1428 2787 
Q 1159 2491 1159 1978 
L 1159 0 
L 581 0 
L 581 3500 
L 1159 3500 
L 1159 2956 
Q 1366 3272 1645 3428 
Q 1925 3584 2291 3584 
Q 2894 3584 3203 3211 
Q 3513 2838 3513 2113 
z
" transform="scale(0.015625)"/>
       <path id="DejaVuSans-63" d="M 3122 3366 
L 3122 2828 
Q 2878 2963 2633 3030 
Q 2388 3097 2138 3097 
Q 1578 3097 1268 2742 
Q 959 2388 959 1747 
Q 959 1106 1268 751 
Q 1578 397 2138 397 
Q 2388 397 2633 464 
Q 2878 531 3122 666 
L 3122 134 
Q 2881 22 2623 -34 
Q 2366 -91 2075 -91 
Q 1284 -91 818 406 
Q 353 903 353 1747 
Q 353 2603 823 3093 
Q 1294 3584 2113 3584 
Q 2378 3584 2631 3529 
Q 2884 3475 3122 3366 
z
" transform="scale(0.015625)"/>
       <path id="DejaVuSans-79" d="M 2059 -325 
Q 1816 -950 1584 -1140 
Q 1353 -1331 966 -1331 
L 506 -1331 
L 506 -850 
L 844 -850 
Q 1081 -850 1212 -737 
Q 1344 -625 1503 -206 
L 1606 56 
L 191 3500 
L 800 3500 
L 1894 763 
L 2988 3500 
L 3597 3500 
L 2059 -325 
z
" transform="scale(0.015625)"/>
       <path id="DejaVuSans-20" transform="scale(0.015625)"/>
       <path id="DejaVuSans-28" d="M 1984 4856 
Q 1566 4138 1362 3434 
Q 1159 2731 1159 2009 
Q 1159 1288 1364 580 
Q 1569 -128 1984 -844 
L 1484 -844 
Q 1016 -109 783 600 
Q 550 1309 550 2009 
Q 550 2706 781 3412 
Q 1013 4119 1484 4856 
L 1984 4856 
z
" transform="scale(0.015625)"/>
       <path id="DejaVuSans-54" d="M -19 4666 
L 3928 4666 
L 3928 4134 
L 2272 4134 
L 2272 0 
L 1638 0 
L 1638 4134 
L -19 4134 
L -19 4666 
z
" transform="scale(0.015625)"/>
       <path id="DejaVuSans-48" d="M 628 4666 
L 1259 4666 
L 1259 2753 
L 3553 2753 
L 3553 4666 
L 4184 4666 
L 4184 0 
L 3553 0 
L 3553 2222 
L 1259 2222 
L 1259 0 
L 628 0 
L 628 4666 
z
" transform="scale(0.015625)"/>
       <path id="DejaVuSans-7a" d="M 353 3500 
L 3084 3500 
L 3084 2975 
L 922 459 
L 3084 459 
L 3084 0 
L 275 0 
L 275 525 
L 2438 3041 
L 353 3041 
L 353 3500 
z
" transform="scale(0.015625)"/>
       <path id="DejaVuSans-29" d="M 513 4856 
L 1013 4856 
Q 1481 4119 1714 3412 
Q 1947 2706 1947 2009 
Q 1947 1309 1714 600 
Q 1481 -109 1013 -844 
L 513 -844 
Q 928 -128 1133 580 
Q 1338 1288 1338 2009 
Q 1338 2731 1133 3434 
Q 928 4138 513 4856 
z
" transform="scale(0.015625)"/>
      </defs>
      <use xlink:href="#DejaVuSans-46"/>
      <use xlink:href="#DejaVuSans-72" x="50.269531"/>
      <use xlink:href="#DejaVuSans-65" x="89.132812"/>
      <use xlink:href="#DejaVuSans-71" x="150.65625"/>
      <use xlink:href="#DejaVuSans-75" x="214.132812"/>
      <use xlink:href="#DejaVuSans-65" x="277.511719"/>
      <use xlink:href="#DejaVuSans-6e" x="339.035156"/>
      <use xlink:href="#DejaVuSans-63" x="402.414062"/>
      <use xlink:href="#DejaVuSans-79" x="457.394531"/>
      <use xlink:href="#DejaVuSans-20" x="516.574219"/>
      <use xlink:href="#DejaVuSans-28" x="548.361328"/>
      <use xlink:href="#DejaVuSans-54" x="587.375"/>
      <use xlink:href="#DejaVuSans-48" x="648.458984"/>
      <use xlink:href="#DejaVuSans-7a" x="723.654297"/>
      <use xlink:href="#DejaVuSans-29" x="776.144531"/>
     </g>
    </g>
   </g>
   <g id="line2d_16">
    <path d="M 136.08 679.338869 
L 141.041126 676.331671 
L 155.924505 667.861338 
L 165.846757 662.476033 
L 175.76901 657.455676 
L 180.730136 655.132824 
L 185.691262 652.964916 
L 190.652389 650.974191 
L 195.613515 649.179292 
L 200.574641 647.591947 
L 205.535767 646.214869 
L 210.496893 645.042008 
L 215.458192 644.060873 
L 220.419319 643.255695 
L 225.380445 642.610336 
L 230.341571 642.11063 
L 235.302697 641.74623 
L 240.263824 641.512195 
L 245.22495 641.410491 
L 250.186076 641.451543 
L 255.147202 641.655946 
L 260.108328 642.056424 
L 265.069455 642.700102 
L 270.030581 643.65126 
L 274.991707 644.995055 
L 279.952833 646.843909 
L 284.91396 649.351652 
L 289.875086 652.75103 
L 294.836212 657.473491 
L 299.797338 664.719875 
L 304.758465 688.376888 
L 309.719591 699.311659 
L 314.680717 706.493673 
L 319.641843 712.344217 
L 324.602969 717.382957 
L 329.564096 721.813708 
L 334.525222 725.736668 
L 339.486348 729.208137 
L 344.447474 732.262839 
L 349.408601 734.923723 
L 354.369727 737.20673 
L 359.330853 739.123306 
L 364.291979 740.68181 
L 369.253278 741.888346 
L 374.214404 742.747268 
L 379.175531 743.2615 
L 386.121833 743.414625 
L 391.085031 743.210924 
L 396.048056 742.780532 
L 401.011255 742.122639 
L 405.97428 741.235857 
L 415.266464 739.326021 
L 418.423544 738.508671 
L 421.580624 737.56522 
L 424.737705 736.492427 
L 427.894785 735.286553 
L 431.051865 733.943344 
L 434.208945 732.458046 
L 437.366198 730.825487 
L 440.523279 729.040286 
L 443.680359 727.09731 
L 446.837439 724.992585 
L 449.99452 722.72499 
L 453.1516 720.299183 
L 459.465933 715.046024 
L 468.937174 706.680891 
L 472.094255 703.790779 
L 475.251335 700.722733 
L 478.408415 697.296459 
L 481.565496 693.16056 
L 484.722749 687.181255 
L 487.879829 670.995584 
L 491.036909 665.09938 
L 494.19399 661.002127 
L 497.35107 657.648415 
L 500.50815 654.730973 
L 503.665231 652.111288 
L 506.822484 649.714402 
L 509.979564 647.49564 
L 516.293725 643.491164 
L 522.607885 639.981275 
L 528.922219 636.944725 
L 532.079299 635.617647 
L 535.236379 634.434746 
L 538.39346 633.414619 
L 541.55054 632.579964 
L 544.70762 631.955381 
L 547.864701 631.563433 
L 551.021954 631.419877 
L 554.179034 631.530233 
L 557.336114 631.889664 
L 560.493195 632.48599 
L 563.650275 633.303908 
L 566.807355 634.328572 
L 582.243448 630.859717 
L 589.961407 629.294728 
L 597.679367 627.924403 
L 605.397327 626.818974 
L 613.115287 626.06429 
L 616.974267 625.850026 
L 620.833419 625.762161 
L 624.692399 625.8125 
L 628.551379 626.009644 
L 632.410359 626.357421 
L 636.269339 626.854181 
L 640.128319 627.493318 
L 643.987298 628.264733 
L 651.705258 630.156954 
L 659.423218 632.439116 
L 667.14135 635.035966 
L 674.85931 637.891142 
L 682.57727 640.962633 
L 690.29523 644.218466 
L 701.872169 649.39588 
L 713.449282 654.876546 
L 725.026221 660.627615 
L 736.603161 666.62888 
L 752.039253 674.954786 
L 755.898233 677.074973 
L 759.757213 679.338869 
L 759.757213 679.338869 
L 761.976355 678.146223 
L 775.291554 671.947532 
L 781.949153 669.041058 
L 788.606753 666.363516 
L 795.264179 664.00176 
L 799.702636 662.645272 
L 804.141094 661.48761 
L 808.579378 660.540724 
L 813.017835 659.805499 
L 817.45612 659.271206 
L 821.894577 658.917385 
L 828.552176 658.665612 
L 835.209775 658.659888 
L 846.305659 658.944401 
L 864.059142 659.437084 
L 870.716742 659.487089 
L 870.716742 659.487089 
" clip-path="url(#p3578d0ef39)" style="fill: none; stroke: #5a8d03; stroke-width: 2.5; stroke-linecap: square"/>
   </g>
   <g id="line2d_17">
    <path d="M 136.08 679.28203 
L 141.041126 674.886938 
L 146.002252 670.659166 
L 150.963379 666.594065 
L 155.924505 662.761897 
L 160.885631 659.216607 
L 165.846757 655.98734 
L 170.807884 653.073564 
L 175.76901 650.447694 
L 180.730136 648.064712 
L 185.691262 645.873986 
L 195.613515 641.892694 
L 205.535767 638.266236 
L 215.458192 634.949523 
L 225.380445 632.008182 
L 230.341571 630.703084 
L 235.302697 629.51791 
L 240.263824 628.456686 
L 245.22495 627.520941 
L 250.186076 626.709725 
L 255.147202 626.019496 
L 265.069455 624.973178 
L 274.991707 624.291545 
L 279.952833 624.045947 
L 284.91396 624.586176 
L 289.875086 627.348256 
L 294.836212 630.334744 
L 299.797338 633.55672 
L 304.758465 637.033504 
L 309.719591 640.797341 
L 314.680717 644.902577 
L 319.641843 649.445671 
L 324.602969 654.616589 
L 329.564096 660.874257 
L 334.525222 670.138979 
L 339.486348 691.631508 
L 344.447474 698.490427 
L 349.408601 703.049364 
L 354.369727 706.455209 
L 359.330853 709.079276 
L 364.291979 711.094546 
L 369.253278 712.595126 
L 374.214404 713.635928 
L 379.175531 714.249122 
L 387.114507 714.463069 
L 397.040731 714.65189 
L 412.109211 715.112707 
L 418.423544 714.946161 
L 424.737705 714.42743 
L 431.051865 713.523098 
L 434.208945 712.909902 
L 437.366198 712.176101 
L 440.523279 711.307139 
L 443.680359 710.282484 
L 446.837439 709.072224 
L 449.99452 707.631195 
L 453.1516 705.888545 
L 456.30868 703.728519 
L 459.465933 700.952136 
L 462.623014 697.180812 
L 465.780094 691.438902 
L 468.937174 672.341631 
L 472.094255 662.953397 
L 475.251335 656.932082 
L 478.408415 652.040608 
L 481.565496 647.821045 
L 484.722749 644.088385 
L 487.879829 640.747968 
L 491.036909 637.745677 
L 494.19399 635.048934 
L 497.35107 632.637475 
L 500.50815 630.497804 
L 503.665231 628.619204 
L 506.822484 626.990611 
L 509.979564 625.598349 
L 513.136644 624.424996 
L 516.293725 623.449502 
L 519.450805 622.648288 
L 522.607885 621.996704 
L 528.922219 621.044935 
L 535.236379 620.404158 
L 547.864701 619.285464 
L 554.179034 618.48858 
L 566.807355 616.508742 
L 566.807355 616.508742 
L 578.384468 615.756735 
L 589.961407 615.254777 
L 601.538347 615.051397 
L 609.256307 615.121717 
L 616.974267 615.403288 
L 624.692399 615.929408 
L 632.410359 616.686636 
L 640.128319 617.663973 
L 647.846278 618.905984 
L 655.564238 620.483399 
L 663.282371 622.462377 
L 667.14135 623.61912 
L 671.00033 624.893769 
L 674.85931 626.289198 
L 678.71829 627.80655 
L 686.43625 631.202705 
L 694.15421 635.057643 
L 701.872169 639.327047 
L 709.590302 643.956491 
L 717.308262 648.889401 
L 725.026221 654.071568 
L 736.603161 662.203117 
L 748.180101 670.62745 
L 759.757213 679.28203 
L 759.757213 679.28203 
L 764.195498 676.727051 
L 777.510696 669.448096 
L 786.387438 664.820024 
L 795.264179 660.454136 
L 804.141094 656.3847 
L 813.017835 652.612999 
L 821.894577 649.120238 
L 830.771318 645.888118 
L 839.64806 642.921819 
L 846.305659 640.903435 
L 852.963258 639.126142 
L 857.401716 638.129537 
L 861.84 637.342725 
L 866.278457 636.830191 
L 870.716742 636.651028 
L 870.716742 636.651028 
" clip-path="url(#p3578d0ef39)" style="fill: none; stroke: #5a8d03; stroke-width: 2.5; stroke-linecap: square"/>
   </g>
   <g id="line2d_18">
    <path d="M 136.08 679.210211 
L 146.002252 666.457519 
L 150.963379 660.30472 
L 155.924505 654.406237 
L 160.885631 648.835068 
L 165.846757 643.65054 
L 170.807884 638.893146 
L 175.76901 634.582011 
L 180.730136 630.716524 
L 185.691262 627.281095 
L 190.652389 624.250617 
L 195.613515 621.594937 
L 200.574641 619.282118 
L 205.535767 617.280901 
L 210.496893 615.562799 
L 215.458192 614.104147 
L 220.419319 612.888556 
L 225.380445 611.910609 
L 230.341571 611.181956 
L 235.302697 610.739511 
L 240.263824 610.645614 
L 245.22495 610.955771 
L 250.186076 611.669432 
L 255.147202 612.737253 
L 260.108328 614.106229 
L 265.069455 615.739504 
L 270.030581 617.61461 
L 274.991707 619.718289 
L 279.952833 622.04316 
L 284.91396 623.83854 
L 309.719591 622.853109 
L 324.602969 621.986771 
L 334.525222 621.160113 
L 344.447474 620.019587 
L 349.408601 619.298713 
L 359.330853 617.518847 
L 374.214404 614.331389 
L 379.175531 613.517424 
L 385.625582 613.191925 
L 392.077532 613.018696 
L 398.529656 612.816764 
L 406.470531 614.656472 
L 408.95213 615.160338 
L 408.95213 615.160338 
L 421.580624 616.940116 
L 427.894785 617.591257 
L 434.208945 618.002605 
L 440.523279 618.175062 
L 446.837439 618.129061 
L 453.1516 617.894896 
L 462.623014 617.264328 
L 472.094255 616.389438 
L 484.722749 614.954117 
L 494.19399 613.686973 
L 506.822484 611.729631 
L 516.293725 610.269121 
L 522.607885 609.509749 
L 528.922219 609.026118 
L 535.236379 608.822104 
L 541.55054 608.838384 
L 554.179034 609.190566 
L 566.807355 609.510738 
L 566.807355 609.510738 
L 574.525315 609.644375 
L 582.243448 609.983489 
L 589.961407 610.506346 
L 601.538347 611.550407 
L 616.974267 613.039583 
L 624.692399 613.593704 
L 632.410359 613.958449 
L 643.987298 614.265772 
L 655.564238 614.545861 
L 663.282371 614.907174 
L 671.00033 615.573853 
L 674.85931 616.07089 
L 678.71829 616.699599 
L 682.57727 617.468903 
L 686.43625 618.378167 
L 690.29523 619.417756 
L 698.01319 621.83239 
L 701.872169 623.208003 
L 705.731322 624.84345 
L 709.590302 627.094141 
L 713.449282 629.77187 
L 717.308262 632.651379 
L 721.167242 635.694621 
L 725.026221 638.910104 
L 728.885201 642.324023 
L 732.744181 645.972666 
L 736.603161 649.894866 
L 740.462141 654.120992 
L 744.321121 658.660936 
L 748.180101 663.49632 
L 755.898233 673.842158 
L 759.757213 679.210211 
L 759.757213 679.210211 
L 768.633955 668.863267 
L 775.291554 661.422154 
L 779.729838 656.788738 
L 784.168296 652.594775 
L 786.387438 650.722824 
L 788.606753 649.030705 
L 790.825895 647.531025 
L 793.045037 646.222857 
L 795.264179 645.090837 
L 799.702636 643.245968 
L 804.141094 641.760975 
L 813.017835 639.193553 
L 837.428918 632.434113 
L 844.086517 630.862935 
L 850.744116 629.562034 
L 855.182401 628.875995 
L 859.620858 628.350869 
L 864.059142 627.995955 
L 868.497599 627.8171 
L 870.716742 627.794679 
L 870.716742 627.794679 
" clip-path="url(#p3578d0ef39)" style="fill: none; stroke: #5a8d03; stroke-width: 2.5; stroke-linecap: square"/>
   </g>
   <g id="line2d_19">
    <path d="M 136.08 637.716114 
L 141.041126 637.507916 
L 146.002252 636.88214 
L 150.963379 635.836485 
L 155.924505 634.371576 
L 160.885631 632.497989 
L 165.846757 630.244673 
L 170.807884 627.664816 
L 175.76901 624.835859 
L 190.652389 615.977788 
L 195.613515 613.507543 
L 200.574641 611.68769 
L 205.535767 610.429981 
L 225.380445 606.4734 
L 230.341571 605.947527 
L 240.263824 606.273927 
L 250.186076 606.326871 
L 270.030581 606.143913 
L 279.952833 606.266754 
L 294.836212 606.749526 
L 314.680717 607.745702 
L 344.447474 609.309954 
L 359.330853 609.875294 
L 374.214404 610.198424 
L 387.114507 610.426046 
L 390.092357 610.871464 
L 394.062881 611.726487 
L 398.033232 612.654478 
L 404.981606 611.999727 
L 415.266464 610.794497 
L 424.737705 609.365137 
L 437.366198 607.146991 
L 456.30868 603.491849 
L 478.408415 599.221711 
L 497.35107 595.815486 
L 513.136644 592.920507 
L 519.450805 591.796544 
L 522.607885 591.754294 
L 538.39346 592.292263 
L 547.864701 592.363325 
L 554.179034 592.194345 
L 563.650275 591.741474 
L 566.807355 592.103353 
L 566.807355 592.103353 
L 578.384468 591.970627 
L 589.961407 592.09446 
L 597.679367 592.349619 
L 605.397327 592.773237 
L 613.115287 593.391817 
L 620.833419 594.226662 
L 628.551379 595.288771 
L 636.269339 596.575762 
L 643.987298 598.074292 
L 651.705258 599.775328 
L 659.423218 601.732615 
L 663.282371 602.877587 
L 667.14135 604.178691 
L 674.85931 607.179829 
L 682.57727 610.632628 
L 686.43625 612.543752 
L 694.15421 616.749889 
L 705.731322 623.633733 
L 709.590302 625.419094 
L 717.308262 628.310507 
L 725.026221 630.96762 
L 732.744181 633.353104 
L 736.603161 634.401504 
L 740.462141 635.329183 
L 744.321121 636.11866 
L 748.180101 636.754945 
L 752.039253 637.229482 
L 755.898233 637.556584 
L 761.976355 637.700802 
L 768.633955 637.457873 
L 773.072412 637.092296 
L 777.510696 636.489978 
L 781.949153 635.537628 
L 784.168296 634.880739 
L 788.606753 633.29694 
L 793.045037 631.971231 
L 799.702636 629.687692 
L 806.360236 627.092462 
L 813.017835 624.241127 
L 821.894577 620.159429 
L 826.333034 618.156904 
L 828.552176 617.782204 
L 832.99046 618.553799 
L 855.182401 623.163696 
L 859.620858 623.887004 
L 864.059142 624.428903 
L 868.497599 624.72299 
L 870.716742 624.761014 
L 870.716742 624.761014 
" clip-path="url(#p3578d0ef39)" style="fill: none; stroke: #5a8d03; stroke-width: 2.5; stroke-linecap: square"/>
   </g>
   <g id="line2d_20">
    <path d="M 136.08 637.432961 
L 141.041126 636.991571 
L 146.002252 635.698687 
L 150.963379 633.63981 
L 155.924505 630.935309 
L 160.885631 627.722021 
L 165.846757 624.145436 
L 175.76901 616.602709 
L 180.730136 613.179253 
L 185.691262 610.533258 
L 190.652389 608.814371 
L 195.613515 607.7303 
L 200.574641 606.995399 
L 205.535767 606.473762 
L 210.496893 606.111924 
L 215.458192 605.889731 
L 220.419319 605.797704 
L 225.380445 605.824685 
L 230.341571 605.367275 
L 240.263824 602.967995 
L 255.147202 599.084269 
L 274.991707 593.918846 
L 284.91396 591.529292 
L 294.836212 589.354835 
L 299.797338 588.377991 
L 304.758465 587.563698 
L 309.719591 587.386837 
L 319.641843 587.743291 
L 329.564096 587.673624 
L 344.447474 587.155027 
L 349.408601 587.570979 
L 354.369727 589.426788 
L 364.291979 594.727544 
L 369.253278 597.173368 
L 374.214404 599.225109 
L 379.175531 600.655067 
L 384.632908 601.174853 
L 386.618083 601.009869 
L 388.603432 600.640173 
L 391.085031 599.935558 
L 394.062881 598.816052 
L 397.536981 597.238646 
L 401.507505 595.184292 
L 406.470531 592.349971 
L 408.95213 590.848654 
L 408.95213 590.848654 
L 415.266464 587.864214 
L 421.580624 584.545946 
L 424.737705 583.15382 
L 427.894785 583.136069 
L 437.366198 583.749711 
L 449.99452 584.81048 
L 465.780094 586.393447 
L 500.50815 590.057936 
L 509.979564 590.845933 
L 516.293725 591.245679 
L 519.450805 591.276502 
L 522.607885 590.793786 
L 532.079299 588.633527 
L 544.70762 585.727776 
L 547.864701 585.099933 
L 551.021954 584.781924 
L 554.179034 586.105798 
L 557.336114 587.668207 
L 560.493195 589.001386 
L 563.650275 589.860337 
L 566.807355 589.889619 
L 566.807355 589.889619 
L 582.243448 586.577965 
L 589.961407 585.119287 
L 597.679367 583.94727 
L 601.538347 583.524057 
L 605.397327 583.244931 
L 609.256307 583.176997 
L 613.115287 583.803335 
L 616.974267 584.851828 
L 624.692399 587.299743 
L 632.410359 590.018828 
L 647.846278 595.818279 
L 659.423218 600.114712 
L 663.282371 601.403355 
L 667.14135 602.55544 
L 674.85931 604.509906 
L 682.57727 606.075059 
L 690.29523 607.221009 
L 698.01319 607.992417 
L 705.731322 608.510346 
L 713.449282 608.990975 
L 717.308262 610.192849 
L 721.167242 613.561872 
L 728.885201 620.840771 
L 732.744181 624.304033 
L 736.603161 627.526145 
L 740.462141 630.417862 
L 744.321121 632.896661 
L 748.180101 634.892427 
L 752.039253 636.346722 
L 755.898233 637.196756 
L 759.757213 637.432961 
L 759.757213 637.432961 
L 764.195498 637.332931 
L 768.633955 637.033415 
L 773.072412 636.536174 
L 777.510696 635.844269 
L 781.949153 634.962247 
L 786.387438 633.896359 
L 788.606753 633.097389 
L 790.825895 631.942824 
L 793.045037 630.614877 
L 797.483494 627.5333 
L 810.79852 617.583702 
L 815.236977 614.892767 
L 821.894577 616.117399 
L 826.333034 616.88149 
L 828.552176 616.632948 
L 832.99046 614.61148 
L 857.401716 602.69617 
L 861.84 600.74935 
L 866.278457 600.02308 
L 868.497599 599.824498 
L 870.716742 599.755851 
L 870.716742 599.755851 
" clip-path="url(#p3578d0ef39)" style="fill: none; stroke: #5a8d03; stroke-width: 2.5; stroke-linecap: square"/>
   </g>
   <g id="line2d_21">
    <path d="M 136.08 609.266021 
L 150.963379 609.375098 
L 170.807884 609.581469 
L 180.730136 609.384286 
L 185.691262 609.069349 
L 190.652389 608.471336 
L 195.613515 607.373146 
L 200.574641 605.557121 
L 205.535767 603.140063 
L 220.419319 595.068719 
L 225.380445 592.54891 
L 230.341571 590.209238 
L 235.302697 588.085466 
L 240.263824 586.211228 
L 245.22495 584.620338 
L 250.186076 583.346522 
L 255.147202 582.420169 
L 260.108328 581.861648 
L 265.069455 581.67225 
L 270.030581 581.826426 
L 274.991707 582.2702 
L 279.952833 582.927761 
L 299.797338 586.037305 
L 304.758465 586.516151 
L 309.719591 586.282437 
L 324.602969 584.219273 
L 334.525222 583.140183 
L 344.447474 582.379405 
L 349.408601 583.899845 
L 354.369727 584.722044 
L 359.330853 584.611479 
L 379.175531 583.261956 
L 395.055382 582.804454 
L 401.507505 582.293548 
L 403.492681 582.203251 
L 415.266464 582.444945 
L 421.580624 582.684814 
L 424.737705 582.512332 
L 427.894785 581.086355 
L 431.051865 579.90828 
L 434.208945 579.224928 
L 440.523279 578.320184 
L 465.780094 575.245749 
L 497.35107 571.474717 
L 503.665231 570.876035 
L 509.979564 570.558215 
L 513.136644 570.607314 
L 516.293725 570.851228 
L 519.450805 571.296467 
L 522.607885 571.923361 
L 525.764966 572.711203 
L 528.922219 573.650511 
L 532.079299 574.741921 
L 535.236379 575.990607 
L 538.39346 577.399379 
L 541.55054 578.960711 
L 551.021954 583.917299 
L 554.179034 583.801175 
L 560.493195 583.034474 
L 563.650275 582.791253 
L 566.807355 582.664858 
L 566.807355 582.664858 
L 574.525315 581.676235 
L 582.243448 581.006795 
L 586.102427 580.818463 
L 589.961407 580.747183 
L 593.820387 580.811795 
L 597.679367 581.03324 
L 601.538347 581.429739 
L 605.397327 582.006608 
L 609.256307 582.709477 
L 613.115287 583.044894 
L 616.974267 583.257162 
L 620.833419 583.601987 
L 624.692399 584.085061 
L 628.551379 584.697917 
L 636.269339 586.274211 
L 643.987298 588.256774 
L 651.705258 590.569589 
L 663.282371 594.435076 
L 674.85931 598.305173 
L 682.57727 600.580021 
L 690.29523 602.493551 
L 698.01319 604.066839 
L 705.731322 605.362823 
L 713.449282 606.467252 
L 717.308262 608.305514 
L 721.167242 608.797152 
L 728.885201 609.034074 
L 744.321121 609.215474 
L 768.633955 609.419967 
L 775.291554 609.73561 
L 784.168296 610.415639 
L 793.045037 611.377323 
L 801.921779 612.598822 
L 810.79852 614.051208 
L 815.236977 614.851716 
L 819.675434 612.698057 
L 824.113719 610.919882 
L 828.552176 609.428345 
L 835.209775 607.486332 
L 848.524801 603.939705 
L 857.401716 601.697416 
L 861.84 600.729483 
L 866.278457 599.109149 
L 868.497599 598.558659 
L 870.716742 598.349813 
L 870.716742 598.349813 
" clip-path="url(#p3578d0ef39)" style="fill: none; stroke: #5a8d03; stroke-width: 2.5; stroke-linecap: square"/>
   </g>
   <g id="line2d_22">
    <path d="M 136.08 609.239904 
L 146.002252 609.061259 
L 155.924505 608.519494 
L 160.885631 608.101905 
L 165.846757 607.566639 
L 170.807884 606.871627 
L 175.76901 605.915462 
L 180.730136 604.469174 
L 185.691262 602.186808 
L 190.652389 598.996695 
L 195.613515 595.258962 
L 210.496893 583.508942 
L 215.458192 579.808436 
L 220.419319 576.316759 
L 225.380445 573.076215 
L 230.341571 570.123317 
L 235.302697 567.487178 
L 240.263824 565.1854 
L 245.22495 563.219316 
L 250.186076 561.571424 
L 255.147202 560.207351 
L 260.108328 559.082188 
L 265.069455 558.148427 
L 274.991707 556.687871 
L 279.952833 556.096769 
L 284.91396 555.788044 
L 289.875086 556.203076 
L 294.836212 556.832057 
L 299.797338 557.8082 
L 304.758465 559.233797 
L 309.719591 561.138005 
L 314.680717 563.471938 
L 319.641843 566.145773 
L 324.602969 569.0657 
L 334.525222 575.316932 
L 339.486348 578.487241 
L 344.447474 581.505224 
L 349.408601 582.106061 
L 359.330853 581.820966 
L 369.253278 581.831219 
L 389.596106 582.097487 
L 403.989105 582.043234 
L 421.580624 580.05946 
L 424.737705 579.60431 
L 427.894785 578.976115 
L 431.051865 577.86183 
L 434.208945 576.18917 
L 440.523279 572.260174 
L 456.30868 562.079242 
L 459.465933 560.457277 
L 462.623014 559.742216 
L 465.780094 559.897254 
L 472.094255 560.78376 
L 506.822484 566.303583 
L 509.979564 566.645593 
L 513.136644 566.870616 
L 516.293725 566.950236 
L 522.607885 566.728687 
L 532.079299 565.95261 
L 547.864701 564.56858 
L 557.336114 563.919598 
L 566.807355 563.563849 
L 566.807355 563.563849 
L 570.666335 563.731703 
L 593.820387 569.413011 
L 597.679367 570.101693 
L 601.538347 570.607414 
L 605.397327 570.89596 
L 609.256307 570.95354 
L 613.115287 570.790259 
L 616.974267 570.435234 
L 624.692399 569.32043 
L 632.410359 568.143133 
L 636.269339 567.903275 
L 643.987298 568.065921 
L 667.14135 569.156775 
L 671.00033 570.153434 
L 674.85931 572.444276 
L 678.71829 575.172848 
L 682.57727 578.111326 
L 690.29523 584.428584 
L 698.01319 591.203076 
L 705.731322 598.328377 
L 713.449282 605.559202 
L 717.308262 606.86954 
L 725.026221 607.671681 
L 732.744181 608.29733 
L 740.462141 608.762339 
L 748.180101 609.070338 
L 755.898233 609.222177 
L 766.414812 609.166704 
L 775.291554 608.83068 
L 781.949153 608.373762 
L 788.606753 607.693804 
L 793.045037 607.076988 
L 797.483494 606.282073 
L 801.921779 605.244228 
L 806.360236 603.871044 
L 808.579378 603.024313 
L 810.79852 602.053824 
L 813.017835 600.95174 
L 817.45612 598.358374 
L 821.894577 595.33824 
L 830.771318 588.914189 
L 832.99046 587.508479 
L 835.209775 586.374993 
L 837.428918 585.651843 
L 839.64806 585.38636 
L 841.867375 585.485374 
L 844.086517 585.815137 
L 848.524801 586.81775 
L 852.963258 587.996657 
L 855.182401 588.714518 
L 864.059142 592.020497 
L 866.278457 592.71175 
L 868.497599 593.220665 
L 870.716742 593.415642 
L 870.716742 593.415642 
" clip-path="url(#p3578d0ef39)" style="fill: none; stroke: #5a8d03; stroke-width: 2.5; stroke-linecap: square"/>
   </g>
   <g id="line2d_23">
    <path d="M 136.08 569.730304 
L 141.041126 569.426753 
L 146.002252 568.526296 
L 150.963379 567.059265 
L 155.924505 565.075728 
L 160.885631 562.645833 
L 165.846757 559.861734 
L 185.691262 547.900439 
L 190.652389 545.485733 
L 195.613515 543.508486 
L 200.574641 541.952745 
L 205.535767 540.753568 
L 210.496893 539.833564 
L 215.458192 539.154024 
L 220.419319 540.575103 
L 240.263824 547.592355 
L 245.22495 549.207573 
L 250.186076 550.691407 
L 255.147202 552.001867 
L 260.108328 553.103582 
L 265.069455 553.977764 
L 270.030581 554.631645 
L 274.991707 555.103003 
L 279.952833 555.458336 
L 284.91396 555.568658 
L 294.836212 554.649294 
L 309.719591 553.51943 
L 324.602969 552.66211 
L 334.525222 552.274642 
L 344.447474 552.077024 
L 354.369727 552.079165 
L 398.033232 552.678397 
L 408.95213 553.201866 
L 408.95213 553.201866 
L 421.580624 553.792936 
L 431.051865 554.490681 
L 437.366198 555.157194 
L 446.837439 556.389116 
L 456.30868 557.646878 
L 459.465933 557.819671 
L 462.623014 557.272953 
L 465.780094 556.183707 
L 468.937174 555.289076 
L 472.094255 554.729789 
L 475.251335 554.402813 
L 481.565496 554.088471 
L 491.036909 553.964572 
L 503.665231 554.103698 
L 516.293725 554.516699 
L 525.764966 555.067416 
L 532.079299 555.668856 
L 535.236379 556.098632 
L 538.39346 556.654561 
L 541.55054 557.363571 
L 547.864701 559.203429 
L 554.179034 561.137446 
L 557.336114 561.914431 
L 560.493195 562.470935 
L 563.650275 562.763305 
L 566.807355 562.817068 
L 566.807355 562.817068 
L 570.666335 563.510554 
L 578.384468 563.547823 
L 586.102427 563.75855 
L 597.679367 564.339939 
L 613.115287 565.420935 
L 624.692399 566.219438 
L 628.551379 566.386311 
L 632.410359 566.367914 
L 636.269339 565.996045 
L 643.987298 564.570693 
L 647.846278 563.870124 
L 651.705258 563.384308 
L 655.564238 563.336485 
L 659.423218 563.954818 
L 663.282371 565.269021 
L 667.14135 567.040521 
L 671.00033 568.456631 
L 674.85931 568.840009 
L 682.57727 569.06773 
L 701.872169 569.284005 
L 764.195498 569.768787 
L 770.853097 569.971332 
L 777.510696 570.349682 
L 784.168296 570.9075 
L 790.825895 571.649506 
L 797.483494 572.580843 
L 804.141094 573.706364 
L 810.79852 575.02989 
L 817.45612 576.553512 
L 824.113719 578.276939 
L 830.771318 580.196836 
L 837.428918 582.305924 
L 846.305659 585.38842 
L 855.182401 588.596073 
L 861.84 590.237597 
L 866.278457 591.005906 
L 868.497599 591.220862 
L 870.716742 591.295044 
L 870.716742 591.295044 
" clip-path="url(#p3578d0ef39)" style="fill: none; stroke: #5a8d03; stroke-width: 2.5; stroke-linecap: square"/>
   </g>
   <g id="line2d_24">
    <path d="M 136.08 569.278311 
L 141.041126 568.85962 
L 146.002252 567.614388 
L 150.963379 565.574458 
L 155.924505 562.790903 
L 160.885631 559.331957 
L 165.846757 555.28217 
L 170.807884 550.745966 
L 185.691262 536.229832 
L 190.652389 532.914258 
L 195.613515 533.439129 
L 205.535767 535.990327 
L 210.496893 537.136261 
L 215.458192 538.829759 
L 220.419319 539.11973 
L 230.341571 540.242868 
L 240.263824 541.014413 
L 274.991707 543.04986 
L 289.875086 544.270071 
L 334.525222 548.219792 
L 344.447474 548.786163 
L 354.369727 549.112225 
L 369.253278 549.261191 
L 391.085031 549.392937 
L 398.033232 549.754921 
L 405.47803 550.382962 
L 415.266464 551.263575 
L 427.894785 552.244688 
L 434.208945 552.571163 
L 443.680359 552.783414 
L 449.99452 552.753575 
L 456.30868 552.53491 
L 459.465933 552.290768 
L 462.623014 551.864152 
L 465.780094 551.123322 
L 468.937174 549.959048 
L 472.094255 548.427321 
L 481.565496 543.229661 
L 484.722749 541.776676 
L 487.879829 540.70919 
L 491.036909 540.031308 
L 494.19399 539.609115 
L 500.50815 539.109834 
L 509.979564 538.675558 
L 516.293725 538.554392 
L 519.450805 538.599958 
L 522.607885 538.778082 
L 525.764966 539.165629 
L 528.922219 539.860953 
L 532.079299 540.948926 
L 535.236379 542.425899 
L 541.55054 545.877079 
L 544.70762 547.408423 
L 547.864701 548.634102 
L 551.021954 549.551006 
L 554.179034 550.212965 
L 557.336114 550.683749 
L 563.650275 551.236384 
L 566.807355 551.367179 
L 566.807355 551.367179 
L 605.397327 549.166017 
L 613.115287 548.911515 
L 620.833419 548.843509 
L 628.551379 549.110847 
L 632.410359 549.438994 
L 636.269339 549.937695 
L 640.128319 550.626881 
L 643.987298 551.499019 
L 651.705258 553.482063 
L 655.564238 554.221239 
L 659.423218 554.459223 
L 663.282371 554.126639 
L 667.14135 553.35861 
L 671.00033 552.313584 
L 674.85931 551.093825 
L 682.57727 548.333411 
L 690.29523 545.302152 
L 705.731322 538.943583 
L 709.590302 538.041143 
L 713.449282 538.450134 
L 717.308262 539.615737 
L 721.167242 541.490429 
L 725.026221 544.164881 
L 728.885201 547.584548 
L 740.462141 559.395221 
L 744.321121 562.82767 
L 748.180101 565.653964 
L 752.039253 567.742875 
L 755.898233 568.970729 
L 759.757213 569.278311 
L 759.757213 569.278311 
L 766.414812 569.3671 
L 773.072412 569.634347 
L 779.729838 570.082489 
L 786.387438 570.714855 
L 793.045037 571.53447 
L 799.702636 572.542121 
L 806.360236 573.733179 
L 815.236977 575.575643 
L 828.552176 578.501126 
L 830.771318 578.858932 
L 832.99046 579.065718 
L 835.209775 579.007566 
L 837.428918 578.553392 
L 839.64806 577.661044 
L 841.867375 576.427283 
L 846.305659 573.441404 
L 859.620858 563.927509 
L 864.059142 561.008482 
L 866.278457 559.673358 
L 868.497599 558.54361 
L 870.716742 558.012649 
L 870.716742 558.012649 
" clip-path="url(#p3578d0ef39)" style="fill: none; stroke: #5a8d03; stroke-width: 2.5; stroke-linecap: square"/>
   </g>
   <g id="line2d_25">
    <path d="M 136.08 535.067448 
L 141.041126 535.006893 
L 146.002252 534.826829 
L 155.924505 534.130598 
L 165.846757 533.058096 
L 180.730136 531.238703 
L 185.691262 531.032877 
L 190.652389 532.023316 
L 195.613515 532.781667 
L 200.574641 534.031688 
L 210.496893 537.08128 
L 215.458192 537.985859 
L 220.419319 538.217854 
L 230.341571 537.149097 
L 235.302697 536.479473 
L 240.263824 535.68137 
L 245.22495 534.720596 
L 250.186076 533.583837 
L 255.147202 532.28236 
L 260.108328 530.847508 
L 265.069455 532.045078 
L 270.030581 533.506087 
L 279.952833 536.825695 
L 289.875086 540.366275 
L 294.836212 542.021852 
L 299.797338 543.455639 
L 304.758465 544.575527 
L 309.719591 545.353274 
L 314.680717 545.83069 
L 319.641843 546.083575 
L 329.564096 546.192009 
L 344.447474 545.97011 
L 369.253278 545.579625 
L 393.070207 545.292363 
L 400.018581 544.855981 
L 408.455879 544.086042 
L 412.109211 543.795844 
L 434.208945 541.973051 
L 456.30868 540.189277 
L 478.408415 538.456814 
L 481.565496 538.020716 
L 484.722749 537.35657 
L 487.879829 536.343499 
L 491.036909 534.99824 
L 503.665231 528.940604 
L 506.822484 527.624964 
L 509.979564 526.454565 
L 513.136644 525.447367 
L 516.293725 524.620769 
L 519.450805 523.999391 
L 522.607885 523.62895 
L 525.764966 523.595351 
L 528.922219 524.010906 
L 538.39346 526.550581 
L 541.55054 526.994447 
L 544.70762 527.200134 
L 560.493195 527.54324 
L 566.807355 528.173765 
L 566.807355 528.173765 
L 578.384468 527.727676 
L 593.820387 526.853823 
L 601.538347 526.412924 
L 605.397327 526.339927 
L 609.256307 526.765418 
L 613.115287 527.735816 
L 620.833419 530.126009 
L 632.410359 533.758508 
L 636.269339 534.81298 
L 640.128319 535.719768 
L 643.987298 536.450306 
L 647.846278 536.995229 
L 651.705258 537.36477 
L 655.564238 537.582532 
L 663.282371 537.677219 
L 671.00033 537.48678 
L 694.15421 536.58558 
L 701.872169 536.571765 
L 705.731322 536.639202 
L 709.590302 536.265742 
L 713.449282 534.889674 
L 725.026221 529.808781 
L 728.885201 529.721213 
L 732.744181 530.918597 
L 736.603161 531.98705 
L 740.462141 532.906643 
L 744.321121 533.668645 
L 748.180101 534.267342 
L 752.039253 534.699661 
L 755.898233 534.968034 
L 764.195498 535.073887 
L 781.949153 535.250028 
L 795.264179 535.61493 
L 806.360236 536.149829 
L 815.236977 536.780068 
L 821.894577 537.434906 
L 826.333034 538.027558 
L 830.771318 538.829533 
L 835.209775 539.906852 
L 839.64806 541.263509 
L 844.086517 542.860104 
L 848.524801 544.658873 
L 852.963258 546.635163 
L 859.620858 549.890668 
L 868.497599 554.356649 
L 870.716742 554.848916 
L 870.716742 554.848916 
" clip-path="url(#p3578d0ef39)" style="fill: none; stroke: #5a8d03; stroke-width: 2.5; stroke-linecap: square"/>
   </g>
   <g id="line2d_26">
    <path d="M 136.08 535.013052 
L 141.041126 534.724491 
L 146.002252 533.862374 
L 150.963379 532.439504 
L 155.924505 530.488636 
L 160.885631 528.127022 
L 165.846757 526.248134 
L 170.807884 526.430178 
L 175.76901 527.604452 
L 185.691262 530.547234 
L 190.652389 531.287417 
L 195.613515 530.362301 
L 200.574641 529.213697 
L 205.535767 528.383659 
L 210.496893 527.757981 
L 215.458192 527.295531 
L 220.419319 526.987579 
L 225.380445 526.837255 
L 230.341571 526.851741 
L 235.302697 527.039015 
L 240.263824 527.406297 
L 245.22495 527.959157 
L 250.186076 528.700894 
L 255.147202 529.631944 
L 260.108328 530.749202 
L 265.069455 529.321513 
L 284.91396 523.112177 
L 294.836212 520.33326 
L 304.758465 517.921295 
L 314.680717 515.905787 
L 324.602969 514.279084 
L 334.525222 513.011504 
L 344.447474 512.061659 
L 354.369727 511.384224 
L 364.291979 510.936322 
L 374.214404 510.682918 
L 389.099682 510.604382 
L 415.266464 510.750387 
L 431.051865 511.048653 
L 462.623014 511.746369 
L 472.094255 511.670536 
L 478.408415 511.444707 
L 484.722749 511.027502 
L 491.036909 510.369244 
L 497.35107 509.424881 
L 503.665231 508.19474 
L 509.979564 506.857271 
L 513.136644 506.345266 
L 516.293725 506.228584 
L 519.450805 507.085923 
L 522.607885 509.513204 
L 525.764966 512.57799 
L 528.922219 515.127267 
L 532.079299 516.7281 
L 535.236379 517.523917 
L 538.39346 517.868484 
L 544.70762 518.059053 
L 560.493195 518.253883 
L 566.807355 518.460931 
L 566.807355 518.460931 
L 574.525315 519.031109 
L 582.243448 520.00017 
L 589.961407 521.343365 
L 597.679367 523.013998 
L 605.397327 524.77678 
L 609.256307 525.18905 
L 613.115287 525.110279 
L 624.692399 524.326933 
L 659.423218 521.811018 
L 674.85931 520.916253 
L 686.43625 520.448174 
L 694.15421 520.355193 
L 698.01319 520.461325 
L 701.872169 520.77636 
L 705.731322 521.436486 
L 709.590302 522.51452 
L 713.449282 523.897541 
L 725.026221 528.33521 
L 728.885201 528.124977 
L 732.744181 528.784817 
L 736.603161 530.452424 
L 740.462141 531.877987 
L 744.321121 533.02946 
L 748.180101 533.913181 
L 752.039253 534.537057 
L 755.898233 534.901597 
L 761.976355 535.013506 
L 797.483494 535.134744 
L 828.552176 535.348731 
L 832.99046 535.986241 
L 837.428918 536.593843 
L 844.086517 537.243281 
L 852.963258 537.797192 
L 861.84 538.10727 
L 870.716742 538.20849 
L 870.716742 538.20849 
" clip-path="url(#p3578d0ef39)" style="fill: none; stroke: #5a8d03; stroke-width: 2.5; stroke-linecap: square"/>
   </g>
   <g id="line2d_27">
    <path d="M 136.08 526.785366 
L 146.002252 526.616014 
L 155.924505 526.061305 
L 160.885631 525.57573 
L 165.846757 524.437908 
L 170.807884 523.023713 
L 175.76901 523.9581 
L 180.730136 524.543679 
L 185.691262 524.141291 
L 190.652389 521.7586 
L 195.613515 517.263991 
L 200.574641 511.613224 
L 205.535767 505.659001 
L 210.496893 500.994143 
L 215.458192 499.195037 
L 220.419319 498.207349 
L 230.341571 496.67913 
L 240.263824 495.417015 
L 250.186076 494.376907 
L 260.108328 493.568343 
L 270.030581 493.007514 
L 279.952833 492.707045 
L 289.875086 492.670714 
L 299.797338 492.889462 
L 309.719591 493.338484 
L 319.641843 493.975771 
L 339.486348 495.566218 
L 354.369727 496.729328 
L 364.291979 497.338196 
L 374.214404 497.733571 
L 385.625582 497.868822 
L 397.536981 497.726856 
L 412.109211 497.303047 
L 424.737705 496.75321 
L 440.523279 495.752098 
L 459.465933 494.495232 
L 468.937174 494.072478 
L 475.251335 493.946247 
L 481.565496 493.984444 
L 487.879829 494.214242 
L 494.19399 494.647299 
L 503.665231 495.620043 
L 513.136644 496.761229 
L 516.293725 498.012654 
L 519.450805 500.874561 
L 522.607885 502.754738 
L 525.764966 503.70951 
L 541.55054 507.346801 
L 547.864701 508.507428 
L 551.021954 508.909863 
L 554.179034 509.155344 
L 557.336114 509.222878 
L 560.493195 509.101999 
L 563.650275 508.794652 
L 566.807355 508.314417 
L 566.807355 508.314417 
L 589.961407 507.825413 
L 613.115287 507.401993 
L 636.269339 507.193226 
L 663.282371 507.177667 
L 682.57727 507.362154 
L 686.43625 507.553666 
L 690.29523 508.969316 
L 698.01319 513.055704 
L 701.872169 514.78921 
L 705.731322 516.116307 
L 717.308262 521.989909 
L 725.026221 525.313241 
L 728.885201 526.960413 
L 732.744181 526.673425 
L 736.603161 526.107668 
L 752.039253 526.717623 
L 773.072412 527.107774 
L 781.949153 527.679806 
L 790.825895 528.537895 
L 799.702636 529.688729 
L 806.360236 530.75117 
L 815.236977 532.429448 
L 828.552176 535.210548 
L 830.771318 535.364121 
L 870.716742 535.525102 
L 870.716742 535.525102 
" clip-path="url(#p3578d0ef39)" style="fill: none; stroke: #5a8d03; stroke-width: 2.5; stroke-linecap: square"/>
   </g>
   <g id="line2d_28">
    <path d="M 136.08 517.52531 
L 141.041126 517.715215 
L 146.002252 518.265085 
L 150.963379 519.204585 
L 160.885631 521.538681 
L 170.807884 523.016665 
L 175.76901 521.820578 
L 180.730136 520.030248 
L 185.691262 517.594435 
L 190.652389 514.469932 
L 195.613515 510.669128 
L 200.574641 506.273431 
L 210.496893 496.625302 
L 220.419319 485.276122 
L 230.341571 474.239221 
L 240.263824 463.608858 
L 245.22495 458.589606 
L 250.186076 453.981365 
L 255.147202 450.680077 
L 260.108328 448.784737 
L 265.069455 447.262458 
L 274.991707 444.612259 
L 279.952833 443.426078 
L 284.91396 442.499388 
L 299.797338 440.822799 
L 314.680717 439.366005 
L 329.564096 438.133238 
L 344.447474 437.147133 
L 359.330853 436.441458 
L 374.214404 436.049419 
L 388.107008 435.995308 
L 397.040731 436.20192 
L 405.97428 436.627946 
L 415.266464 437.220264 
L 421.580624 437.849936 
L 427.894785 438.727915 
L 434.208945 439.837917 
L 440.523279 441.148086 
L 449.99452 443.412685 
L 459.465933 445.932194 
L 487.879829 453.906024 
L 491.036909 455.044048 
L 494.19399 458.058047 
L 497.35107 463.400651 
L 509.979564 486.022302 
L 513.136644 491.102533 
L 516.293725 494.65673 
L 519.450805 495.234172 
L 522.607885 494.684571 
L 525.764966 493.664471 
L 528.922219 492.337211 
L 532.079299 490.801435 
L 538.39346 487.359271 
L 554.179034 478.288604 
L 557.336114 476.665344 
L 560.493195 475.255776 
L 563.650275 474.226414 
L 566.807355 473.842594 
L 566.807355 473.842594 
L 574.525315 473.272088 
L 582.243448 472.986476 
L 589.961407 472.976556 
L 597.679367 473.243774 
L 605.397327 473.801433 
L 613.115287 474.675437 
L 620.833419 475.903502 
L 628.551379 477.531328 
L 632.410359 478.50975 
L 636.269339 479.604737 
L 640.128319 480.820352 
L 643.987298 482.159775 
L 647.846278 483.630157 
L 651.705258 485.520331 
L 659.423218 489.98999 
L 671.00033 497.043804 
L 682.57727 504.167991 
L 686.43625 506.367903 
L 690.29523 507.342634 
L 694.15421 508.896561 
L 705.731322 515.863189 
L 709.590302 516.933526 
L 713.449282 517.361633 
L 721.167242 517.658712 
L 725.026221 519.741816 
L 728.885201 522.497547 
L 732.744181 523.842669 
L 736.603161 523.639022 
L 740.462141 522.388565 
L 748.180101 519.648053 
L 752.039253 518.532339 
L 755.898233 517.76397 
L 759.757213 517.52531 
L 759.757213 517.52531 
L 764.195498 517.544182 
L 768.633955 517.828999 
L 775.291554 518.535507 
L 784.168296 519.756206 
L 806.360236 522.953836 
L 815.236977 523.990919 
L 824.113719 524.810226 
L 832.99046 525.418277 
L 844.086517 525.929889 
L 855.182401 526.228031 
L 868.497599 526.367971 
L 870.716742 526.370813 
L 870.716742 526.370813 
" clip-path="url(#p3578d0ef39)" style="fill: none; stroke: #5a8d03; stroke-width: 2.5; stroke-linecap: square"/>
   </g>
   <g id="line2d_29">
    <path d="M 136.08 517.431436 
L 141.041126 517.647398 
L 146.002252 518.237492 
L 150.963379 518.996224 
L 160.885631 520.914047 
L 165.846757 521.96841 
L 170.807884 520.527379 
L 175.76901 516.775997 
L 180.730136 512.447477 
L 185.691262 507.732922 
L 190.652389 502.710497 
L 195.613515 501.590367 
L 200.574641 500.608177 
L 205.535767 499.387745 
L 210.496893 496.207419 
L 215.458192 490.795438 
L 220.419319 484.285391 
L 240.263824 457.268832 
L 245.22495 452.933134 
L 250.186076 450.933659 
L 255.147202 447.926569 
L 260.108328 445.822847 
L 274.991707 443.745042 
L 279.952833 443.10895 
L 284.91396 442.320914 
L 294.836212 440.337246 
L 304.758465 438.635014 
L 314.680717 437.192075 
L 324.602969 435.987743 
L 334.525222 435.002936 
L 344.447474 434.220786 
L 354.369727 433.627169 
L 364.291979 433.211023 
L 374.214404 432.964468 
L 388.603432 432.891118 
L 404.485355 433.058103 
L 418.423544 433.209154 
L 427.894785 433.012359 
L 437.366198 432.543477 
L 446.837439 431.865563 
L 459.465933 430.734956 
L 475.251335 429.099867 
L 478.408415 429.106565 
L 481.565496 434.360121 
L 491.036909 450.775227 
L 494.19399 454.299692 
L 497.35107 455.485776 
L 500.50815 456.258271 
L 506.822484 457.500548 
L 513.136644 458.506088 
L 519.450805 459.320936 
L 528.922219 460.252764 
L 551.021954 462.120152 
L 554.179034 462.70536 
L 557.336114 463.529759 
L 563.650275 465.536152 
L 566.807355 466.193626 
L 566.807355 466.193626 
L 570.666335 465.596423 
L 574.525315 465.141525 
L 578.384468 464.830936 
L 582.243448 464.666328 
L 586.102427 464.649029 
L 589.961407 464.77999 
L 593.820387 465.059712 
L 597.679367 465.488164 
L 601.538347 466.064703 
L 605.397327 466.788016 
L 609.256307 467.656079 
L 613.115287 468.666158 
L 616.974267 469.814813 
L 620.833419 471.09793 
L 624.692399 472.510748 
L 632.410359 475.703345 
L 640.128319 479.34214 
L 651.705258 485.191577 
L 659.423218 488.72518 
L 667.14135 492.690456 
L 674.85931 497.025466 
L 682.57727 501.634941 
L 690.29523 506.333204 
L 694.15421 507.31533 
L 713.449282 507.968975 
L 717.308262 510.480847 
L 721.167242 515.574184 
L 725.026221 517.635334 
L 740.462141 517.563634 
L 761.976355 517.457661 
L 768.633955 517.60033 
L 779.729838 517.892619 
L 793.045037 518.474353 
L 844.086517 521.037156 
L 857.401716 521.370321 
L 870.716742 521.483441 
L 870.716742 521.483441 
" clip-path="url(#p3578d0ef39)" style="fill: none; stroke: #5a8d03; stroke-width: 2.5; stroke-linecap: square"/>
   </g>
   <g id="line2d_30">
    <path d="M 136.08 510.833933 
L 141.041126 510.665357 
L 146.002252 510.206514 
L 150.963379 509.55143 
L 160.885631 507.94106 
L 180.730136 504.351058 
L 190.652389 502.520822 
L 195.613515 497.439701 
L 205.535767 486.357688 
L 220.419319 469.137277 
L 225.380445 463.683687 
L 230.341571 459.461402 
L 235.302697 456.869087 
L 240.263824 454.828404 
L 245.22495 450.732845 
L 250.186076 447.421818 
L 255.147202 446.58149 
L 260.108328 443.814913 
L 265.069455 439.634446 
L 270.030581 435.613713 
L 274.991707 431.796536 
L 279.952833 428.195479 
L 284.91396 424.814141 
L 289.875086 421.652355 
L 294.836212 418.707887 
L 299.797338 415.977133 
L 304.758465 413.455476 
L 309.719591 411.137486 
L 314.680717 409.017074 
L 319.641843 407.087616 
L 324.602969 405.342072 
L 329.564096 403.773108 
L 334.525222 402.373224 
L 339.486348 401.134889 
L 344.447474 400.050689 
L 349.408601 399.113469 
L 354.369727 398.316481 
L 359.330853 397.653533 
L 364.291979 397.119119 
L 369.253278 396.708549 
L 374.214404 396.418055 
L 379.175531 396.244881 
L 388.107008 396.239438 
L 394.062881 396.51301 
L 400.018581 397.021417 
L 405.97428 397.765277 
L 421.580624 400.128344 
L 427.894785 401.396004 
L 434.208945 402.868304 
L 440.523279 404.543495 
L 446.837439 406.426049 
L 453.1516 408.536788 
L 459.465933 410.951921 
L 462.623014 412.353191 
L 465.780094 414.024843 
L 468.937174 416.281003 
L 472.094255 419.613103 
L 475.251335 424.018719 
L 478.408415 428.680913 
L 484.722749 428.050596 
L 497.35107 426.686183 
L 500.50815 427.554657 
L 509.979564 432.494486 
L 519.450805 437.677539 
L 532.079299 444.871707 
L 544.70762 452.06378 
L 547.864701 453.726653 
L 551.021954 455.230756 
L 554.179034 456.473248 
L 557.336114 457.350203 
L 560.493195 457.826131 
L 563.650275 457.943737 
L 578.384468 457.068367 
L 586.102427 456.957173 
L 593.820387 457.124259 
L 601.538347 457.555534 
L 609.256307 458.226028 
L 616.974267 459.100948 
L 628.551379 460.701058 
L 643.987298 463.13455 
L 663.282371 466.376699 
L 674.85931 468.488426 
L 682.57727 470.049638 
L 690.29523 471.803718 
L 694.15421 472.774137 
L 698.01319 475.691879 
L 705.731322 490.384134 
L 709.590302 497.410746 
L 713.449282 503.980164 
L 717.308262 507.688503 
L 725.026221 508.185685 
L 736.603161 508.888914 
L 744.321121 509.568019 
L 755.898233 510.70369 
L 761.976355 510.811241 
L 766.414812 510.63638 
L 773.072412 510.116202 
L 781.949153 509.152293 
L 810.79852 505.806091 
L 824.113719 504.5556 
L 835.209775 503.729054 
L 846.305659 503.117378 
L 857.401716 502.72969 
L 868.497599 502.56968 
L 870.716742 502.565106 
L 870.716742 502.565106 
" clip-path="url(#p3578d0ef39)" style="fill: none; stroke: #5a8d03; stroke-width: 2.5; stroke-linecap: square"/>
   </g>
   <g id="line2d_31">
    <path d="M 136.08 492.399237 
L 141.041126 492.145373 
L 146.002252 491.411434 
L 150.963379 490.267558 
L 155.924505 488.799805 
L 160.885631 487.089053 
L 165.846757 485.201952 
L 175.76901 481.093008 
L 190.652389 474.55481 
L 210.496893 465.828363 
L 220.419319 461.482544 
L 225.380445 459.026947 
L 230.341571 455.385109 
L 235.302697 450.178339 
L 240.263824 448.871891 
L 245.22495 447.952969 
L 250.186076 443.932187 
L 260.108328 431.303926 
L 270.030581 419.159517 
L 279.952833 407.648629 
L 284.91396 402.153427 
L 289.875086 396.842028 
L 294.836212 391.721652 
L 299.797338 386.799356 
L 304.758465 382.082209 
L 309.719591 377.577446 
L 314.680717 373.292616 
L 319.641843 369.235711 
L 324.602969 365.415281 
L 329.564096 361.840513 
L 334.525222 358.521274 
L 339.486348 355.468106 
L 344.447474 352.692142 
L 349.408601 350.204951 
L 354.369727 348.018291 
L 359.330853 346.143768 
L 364.291979 344.59241 
L 369.253278 343.374194 
L 374.214404 342.497547 
L 379.175531 341.968877 
L 386.121833 341.813432 
L 390.588607 342.016402 
L 395.055382 342.433862 
L 399.52233 343.064963 
L 402.50018 343.654022 
L 406.470531 344.772721 
L 408.95213 345.576997 
L 408.95213 345.576997 
L 412.109211 346.93886 
L 415.266464 348.711943 
L 418.423544 350.739401 
L 421.580624 353.006686 
L 424.737705 355.50584 
L 427.894785 358.230033 
L 431.051865 361.172714 
L 434.208945 364.327345 
L 437.366198 367.687239 
L 440.523279 371.245379 
L 443.680359 374.994173 
L 449.99452 383.02793 
L 456.30868 391.691818 
L 465.780094 405.250396 
L 468.937174 409.327794 
L 472.094255 412.498326 
L 475.251335 414.751835 
L 478.408415 416.544493 
L 484.722749 419.714044 
L 497.35107 425.895736 
L 500.50815 426.284969 
L 525.764966 423.786203 
L 538.39346 422.76692 
L 551.021954 421.963456 
L 563.650275 421.403345 
L 566.807355 421.303241 
L 566.807355 421.303241 
L 574.525315 420.507397 
L 582.243448 420.114806 
L 589.961407 420.130973 
L 597.679367 420.555408 
L 605.397327 421.381918 
L 613.115287 422.598869 
L 620.833419 424.189405 
L 628.551379 426.131571 
L 636.269339 428.398283 
L 643.987298 430.957053 
L 651.705258 433.769428 
L 659.423218 436.790236 
L 671.00033 441.599324 
L 678.71829 444.966296 
L 682.57727 447.2396 
L 686.43625 453.423677 
L 694.15421 468.21489 
L 698.01319 473.811005 
L 705.731322 476.131369 
L 713.449282 478.761657 
L 721.167242 481.643182 
L 736.603161 487.534212 
L 740.462141 488.855228 
L 744.321121 490.033742 
L 748.180101 491.02154 
L 752.039253 491.770715 
L 755.898233 492.239534 
L 761.976355 492.39777 
L 781.949153 492.261797 
L 821.894577 491.673523 
L 850.744116 491.380735 
L 870.716742 491.320429 
L 870.716742 491.320429 
" clip-path="url(#p3578d0ef39)" style="fill: none; stroke: #5a8d03; stroke-width: 2.5; stroke-linecap: square"/>
   </g>
   <g id="line2d_32">
    <path d="M 136.08 462.711193 
L 146.002252 462.517807 
L 155.924505 461.948719 
L 165.846757 461.035598 
L 175.76901 459.826586 
L 185.691262 458.380669 
L 200.574641 455.907451 
L 235.302697 449.730522 
L 240.263824 444.496619 
L 255.147202 427.299445 
L 265.069455 416.201492 
L 274.991707 405.587246 
L 284.91396 395.562975 
L 289.875086 390.798269 
L 294.836212 386.210007 
L 299.797338 381.805567 
L 304.758465 377.591525 
L 309.719591 373.573807 
L 314.680717 369.757849 
L 319.641843 366.14876 
L 324.602969 362.751503 
L 329.564096 359.571115 
L 334.525222 356.612963 
L 339.486348 353.883053 
L 344.447474 351.388405 
L 349.408601 349.137467 
L 354.369727 347.14052 
L 359.330853 345.409988 
L 364.291979 343.960448 
L 369.253278 342.80811 
L 374.214404 341.969516 
L 379.175531 341.459405 
L 386.121833 341.316027 
L 390.092357 341.539054 
L 394.062881 341.983929 
L 398.033232 342.648343 
L 404.981606 344.124613 
L 408.95213 345.092922 
L 408.95213 345.092922 
L 412.109211 345.206394 
L 468.937174 344.396206 
L 494.19399 344.468231 
L 566.807355 345.020663 
L 566.807355 345.020663 
L 570.666335 343.989949 
L 574.525315 343.253123 
L 578.384468 342.798015 
L 582.243448 342.619454 
L 586.102427 342.718728 
L 589.961407 343.102189 
L 593.820387 343.77949 
L 597.679367 344.761809 
L 601.538347 346.06028 
L 605.397327 347.684774 
L 609.256307 349.643085 
L 613.115287 351.940515 
L 616.974267 354.57977 
L 620.833419 357.561088 
L 624.692399 360.882485 
L 628.551379 364.540054 
L 632.410359 368.528251 
L 636.269339 372.840134 
L 640.128319 377.467549 
L 643.987298 382.401247 
L 647.846278 387.630946 
L 651.705258 393.145328 
L 655.564238 398.931969 
L 659.423218 404.977198 
L 663.282371 411.265826 
L 671.00033 424.500939 
L 682.57727 444.997199 
L 686.43625 447.76274 
L 690.29523 449.422045 
L 698.01319 452.397875 
L 705.731322 455.020329 
L 713.449282 457.242915 
L 721.167242 459.043274 
L 728.885201 460.438235 
L 736.603161 461.466419 
L 744.321121 462.168728 
L 752.039253 462.577181 
L 759.757213 462.711193 
L 759.757213 462.711193 
L 777.510696 462.58619 
L 793.045037 462.260643 
L 808.579378 461.717572 
L 826.333034 460.862229 
L 850.744116 459.648015 
L 861.84 459.312967 
L 870.716742 459.224654 
L 870.716742 459.224654 
" clip-path="url(#p3578d0ef39)" style="fill: none; stroke: #5a8d03; stroke-width: 2.5; stroke-linecap: square"/>
   </g>
   <g id="line2d_33">
    <path d="M 136.08 320.772435 
L 150.963379 320.647883 
L 165.846757 320.286038 
L 180.730136 319.721242 
L 200.574641 318.74706 
L 245.22495 316.433287 
L 265.069455 315.696666 
L 279.952833 315.339229 
L 299.797338 315.121205 
L 319.641843 315.138974 
L 385.625582 315.602162 
L 388.107008 315.929899 
L 393.070207 316.876527 
L 408.95213 320.008783 
L 408.95213 320.008783 
L 418.423544 321.140935 
L 427.894785 322.051576 
L 437.366198 322.763865 
L 449.99452 323.443263 
L 462.623014 323.864115 
L 478.408415 324.130589 
L 522.607885 324.665978 
L 535.236379 325.104838 
L 547.864701 325.782587 
L 560.493195 326.732051 
L 566.807355 327.313051 
L 566.807355 327.313051 
L 574.525315 324.775268 
L 582.243448 322.535104 
L 589.961407 320.661223 
L 597.679367 319.142179 
L 605.397327 317.93401 
L 613.115287 316.996634 
L 620.833419 316.306856 
L 628.551379 315.853144 
L 636.269339 315.624285 
L 643.987298 315.601286 
L 651.705258 315.755669 
L 663.282371 316.242759 
L 678.71829 317.180756 
L 713.449282 319.420128 
L 728.885201 320.152363 
L 744.321121 320.614667 
L 755.898233 320.762522 
L 761.976355 320.807396 
L 766.414812 321.085549 
L 770.853097 321.63382 
L 775.291554 322.436925 
L 779.729838 323.473696 
L 784.168296 324.718716 
L 788.606753 326.143921 
L 795.264179 328.555215 
L 801.921779 331.205973 
L 815.236977 336.840393 
L 826.333034 341.443716 
L 832.99046 343.988665 
L 839.64806 346.273403 
L 844.086517 347.61541 
L 848.524801 348.788986 
L 852.963258 349.776127 
L 857.401716 350.561229 
L 861.84 351.131549 
L 866.278457 351.47763 
L 870.716742 351.593647 
L 870.716742 351.593647 
" clip-path="url(#p3578d0ef39)" style="fill: none; stroke: #5a8d03; stroke-width: 2.5; stroke-linecap: square"/>
   </g>
   <g id="line2d_34">
    <path d="M 136.08 259.529205 
L 141.041126 259.610114 
L 146.002252 259.851012 
L 150.963379 260.24658 
L 155.924505 260.788511 
L 160.885631 261.466231 
L 170.807884 263.180239 
L 180.730136 265.28813 
L 190.652389 267.696153 
L 200.574641 270.326012 
L 215.458192 274.555635 
L 235.302697 280.500237 
L 274.991707 292.503777 
L 289.875086 296.764429 
L 304.758465 300.760785 
L 314.680717 303.241721 
L 324.602969 305.553337 
L 334.525222 307.675469 
L 344.447474 309.580845 
L 354.369727 311.224546 
L 364.291979 312.531352 
L 369.253278 313.02531 
L 374.214404 313.392735 
L 379.175531 313.619779 
L 385.625582 313.625324 
L 388.107008 313.263931 
L 392.077532 312.399923 
L 398.529656 310.738256 
L 406.966954 308.33054 
L 408.95213 307.733603 
L 408.95213 307.733603 
L 418.423544 305.604353 
L 431.051865 302.529734 
L 446.837439 298.448212 
L 487.879829 287.700191 
L 500.50815 284.655633 
L 513.136644 281.856849 
L 522.607885 279.95373 
L 532.079299 278.241122 
L 541.55054 276.735106 
L 551.021954 275.447618 
L 560.493195 274.386333 
L 566.807355 273.806347 
L 566.807355 273.806347 
L 578.384468 276.612783 
L 586.102427 278.284279 
L 593.820387 279.739351 
L 601.538347 280.925483 
L 609.256307 281.79264 
L 616.974267 282.300149 
L 624.692399 282.423253 
L 632.410359 282.157582 
L 640.128319 281.520078 
L 647.846278 280.54588 
L 655.564238 279.282293 
L 663.282371 277.782208 
L 674.85931 275.204835 
L 690.29523 271.418335 
L 709.590302 266.645312 
L 721.167242 264.048329 
L 728.885201 262.540605 
L 736.603161 261.280844 
L 744.321121 260.327635 
L 752.039253 259.731985 
L 759.757213 259.529205 
L 759.757213 259.529205 
L 764.195498 259.440886 
L 768.633955 259.179491 
L 773.072412 258.755294 
L 779.729838 257.849595 
L 786.387438 256.682987 
L 795.264179 254.854459 
L 824.113719 248.585642 
L 832.99046 246.98475 
L 839.64806 245.96656 
L 846.305659 245.125459 
L 852.963258 244.47488 
L 859.620858 244.024326 
L 866.278457 243.779946 
L 870.716742 243.733259 
L 870.716742 243.733259 
" clip-path="url(#p3578d0ef39)" style="fill: none; stroke: #5a8d03; stroke-width: 2.5; stroke-linecap: square"/>
   </g>
   <g id="line2d_35">
    <path d="M 136.08 178.696928 
L 155.924505 178.561433 
L 200.574641 178.011129 
L 210.496893 178.117504 
L 220.419319 178.417559 
L 230.341571 178.961998 
L 240.263824 179.79563 
L 250.186076 180.95387 
L 260.108328 182.459432 
L 270.030581 184.319374 
L 279.952833 186.522627 
L 289.875086 189.038077 
L 299.797338 191.813257 
L 314.680717 196.294048 
L 334.525222 202.301566 
L 344.447474 205.021527 
L 349.408601 206.245634 
L 354.369727 207.353942 
L 359.330853 208.328283 
L 364.291979 209.151759 
L 369.253278 209.80936 
L 374.214404 210.288588 
L 379.175531 210.580033 
L 387.114507 210.642328 
L 392.573956 210.393941 
L 398.033232 209.913987 
L 403.492681 209.213765 
L 415.266464 207.360357 
L 421.580624 206.169057 
L 427.894785 204.7671 
L 437.366198 202.346085 
L 446.837439 199.654116 
L 481.565496 189.438441 
L 491.036909 187.03439 
L 500.50815 184.947399 
L 506.822484 183.753382 
L 513.136644 182.723344 
L 519.450805 181.855805 
L 528.922219 180.84281 
L 538.39346 180.138364 
L 547.864701 179.69118 
L 557.336114 179.45219 
L 566.807355 179.386392 
L 566.807355 179.386392 
L 593.820387 179.518163 
L 624.692399 179.407773 
L 732.744181 178.714857 
L 790.825895 178.513488 
L 870.716742 177.73238 
L 870.716742 177.73238 
" clip-path="url(#p3578d0ef39)" style="fill: none; stroke: #5a8d03; stroke-width: 2.5; stroke-linecap: square"/>
   </g>
   <g id="line2d_36">
    <path d="M 136.08 178.687292 
L 141.041126 178.506952 
L 146.002252 177.968456 
L 150.963379 177.079192 
L 155.924505 175.850908 
L 160.885631 174.298975 
L 165.846757 172.441556 
L 170.807884 170.298783 
L 175.76901 167.892052 
L 180.730136 165.243452 
L 185.691262 162.37536 
L 190.652389 159.310167 
L 195.613515 156.070112 
L 205.535767 149.153053 
L 215.458192 141.796211 
L 230.341571 130.297437 
L 250.186076 114.90575 
L 260.108328 107.49298 
L 270.030581 100.424087 
L 279.952833 93.793067 
L 284.91396 90.665901 
L 289.875086 87.674767 
L 294.836212 84.826052 
L 299.797338 82.125017 
L 304.758465 79.575857 
L 309.719591 77.181769 
L 314.680717 74.945033 
L 319.641843 72.867101 
L 324.602969 70.948696 
L 329.564096 69.18991 
L 334.525222 67.590312 
L 339.486348 66.149058 
L 344.447474 64.864991 
L 349.408601 63.736751 
L 354.369727 62.762871 
L 359.330853 61.941872 
L 364.291979 61.272348 
L 369.253278 60.753039 
L 374.214404 60.382898 
L 379.175531 60.161138 
L 388.107008 60.135747 
L 394.062881 60.39043 
L 400.018581 60.864277 
L 405.97428 61.558778 
L 418.423544 63.277898 
L 424.737705 64.407838 
L 431.051865 65.734213 
L 437.366198 67.235737 
L 446.837439 69.762074 
L 456.30868 72.532402 
L 491.036909 83.031002 
L 500.50815 85.51957 
L 506.822484 87.004116 
L 513.136644 88.331085 
L 519.450805 89.491491 
L 525.764966 90.481902 
L 532.079299 91.303784 
L 538.39346 91.962402 
L 544.70762 92.465436 
L 554.179034 92.946941 
L 563.650275 93.122988 
L 566.807355 93.116706 
L 566.807355 93.116706 
L 570.666335 92.258575 
L 574.525315 91.598506 
L 578.384468 91.139367 
L 582.243448 90.883107 
L 586.102427 90.830755 
L 589.961407 90.982421 
L 593.820387 91.3373 
L 597.679367 91.893673 
L 601.538347 92.648922 
L 605.397327 93.599538 
L 609.256307 94.741135 
L 613.115287 96.068471 
L 616.974267 97.575467 
L 620.833419 99.255232 
L 624.692399 101.100092 
L 628.551379 103.101623 
L 632.410359 105.250686 
L 640.128319 109.951522 
L 647.846278 115.116821 
L 655.564238 120.652345 
L 663.282371 126.457197 
L 694.15421 150.226126 
L 701.872169 155.762728 
L 709.590302 160.924107 
L 713.449282 163.331931 
L 717.308262 165.607686 
L 721.167242 167.73898 
L 725.026221 169.71365 
L 728.885201 171.519828 
L 732.744181 173.146042 
L 736.603161 174.581353 
L 740.462141 175.815547 
L 744.321121 176.83935 
L 748.180101 177.644675 
L 752.039253 178.224875 
L 755.898233 178.574903 
L 761.976355 178.686345 
L 779.729838 178.572872 
L 801.921779 178.186868 
L 855.182401 177.105493 
L 870.716742 177.021678 
L 870.716742 177.021678 
" clip-path="url(#p3578d0ef39)" style="fill: none; stroke: #5a8d03; stroke-width: 2.5; stroke-linecap: square"/>
   </g>
   <g id="line2d_37">
    <path d="M 136.08 679.196441 
L 861.84 679.196441 
" clip-path="url(#p3578d0ef39)" style="fill: none; stroke-dasharray: 7.4,3.2; stroke-dashoffset: 0; stroke: #000000; stroke-width: 2"/>
   </g>
   <g id="line2d_38">
    <path d="M 136.08 777.6 
L 136.08 25.92 
" clip-path="url(#p3578d0ef39)" style="fill: none; stroke: #000000; stroke-width: 2; stroke-linecap: square"/>
   </g>
   <g id="line2d_39">
    <path d="M 384.136657 777.6 
L 384.136657 25.92 
" clip-path="url(#p3578d0ef39)" style="fill: none; stroke: #000000; stroke-width: 2; stroke-linecap: square"/>
   </g>
   <g id="line2d_40">
    <path d="M 408.455879 777.6 
L 408.455879 25.92 
" clip-path="url(#p3578d0ef39)" style="fill: none; stroke: #000000; stroke-width: 2; stroke-linecap: square"/>
   </g>
   <g id="line2d_41">
    <path d="M 560.493195 777.6 
L 560.493195 25.92 
" clip-path="url(#p3578d0ef39)" style="fill: none; stroke: #000000; stroke-width: 2; stroke-linecap: square"/>
   </g>
   <g id="line2d_42">
    <path d="M 748.180101 777.6 
L 748.180101 25.92 
" clip-path="url(#p3578d0ef39)" style="fill: none; stroke: #000000; stroke-width: 2; stroke-linecap: square"/>
   </g>
   <g id="line2d_43">
    <path d="M 861.84 777.6 
L 861.84 25.92 
" clip-path="url(#p3578d0ef39)" style="fill: none; stroke: #000000; stroke-width: 2; stroke-linecap: square"/>
   </g>
   <g id="patch_3">
    <path d="M 136.08 777.6 
L 136.08 25.92 
" style="fill: none; stroke: #000000; stroke-width: 2; stroke-linejoin: miter; stroke-linecap: square"/>
   </g>
   <g id="patch_4">
    <path d="M 861.84 777.6 
L 861.84 25.92 
" style="fill: none; stroke: #000000; stroke-width: 2; stroke-linejoin: miter; stroke-linecap: square"/>
   </g>
   <g id="patch_5">
    <path d="M 136.08 777.6 
L 861.84 777.6 
" style="fill: none; stroke: #000000; stroke-width: 2; stroke-linejoin: miter; stroke-linecap: square"/>
   </g>
   <g id="patch_6">
    <path d="M 136.08 25.92 
L 861.84 25.92 
" style="fill: none; stroke: #000000; stroke-width: 2; stroke-linejoin: miter; stroke-linecap: square"/>
   </g>
  </g>
 </g>
 <defs>
  <clipPath id="p3578d0ef39">
   <rect x="136.08" y="25.92" width="725.76" height="751.68"/>
  </clipPath>
 </defs>
</svg>
